<svg xmlns="http://www.w3.org/2000/svg" xmlns:xlink="http://www.w3.org/1999/xlink" version="1.1" width="390pt" height="291pt" viewBox="0 0 390 291">
<g>
<path stroke-width="1.4" stroke-linecap="butt" stroke-miterlimit="10" stroke-linejoin="miter" fill="none" stroke="#63473d" d="M108.398 96.652C108.398 103.965 108.398 114.246 108.398 123.395"/>
<path d="M109.977 123.555 108.398 128.055 106.824 123.555ZM109.977 123.555" fill="#63473d"/>
<path stroke-width="1.4" stroke-linecap="butt" stroke-miterlimit="10" stroke-linejoin="miter" fill="none" stroke="#63473d" d="M109.977 123.555 108.398 128.055 106.824 123.555ZM109.977 123.555"/>
<path stroke-width="1.4" stroke-linecap="butt" stroke-miterlimit="10" stroke-linejoin="miter" fill="none" stroke="#63473d" d="M91.969 162.418C85.504 171.051 78.793 181.609 74.516 189.91"/>
<path d="M75.785 190.902 72.406 194.266 72.949 189.527ZM75.785 190.902" fill="#63473d"/>
<path stroke-width="1.4" stroke-linecap="butt" stroke-miterlimit="10" stroke-linejoin="miter" fill="none" stroke="#63473d" d="M75.785 190.902 72.406 194.266 72.949 189.527ZM75.785 190.902"/>
<path stroke-width="1.4" stroke-linecap="butt" stroke-miterlimit="10" stroke-linejoin="miter" fill="none" stroke="#63473d" d="M135.633 157.352C160.762 167.453 197.91 182.391 223.305 192.602"/>
<path d="M224.004 191.188 227.59 194.328 222.828 194.109ZM224.004 191.188" fill="#63473d"/>
<path stroke-width="1.4" stroke-linecap="butt" stroke-miterlimit="10" stroke-linejoin="miter" fill="none" stroke="#63473d" d="M224.004 191.188 227.59 194.328 222.828 194.109ZM224.004 191.188"/>
<path stroke-width="1.4" stroke-linecap="butt" stroke-miterlimit="10" stroke-linejoin="miter" fill="none" stroke="#7ba763" d="M108.398 43.418C108.398 51.895 108.398 62.219 108.398 70.449"/>
<path d="M109.977 70.766 108.398 75.266 106.824 70.766ZM109.977 70.766" fill="#7ba763"/>
<path stroke-width="1.4" stroke-linecap="butt" stroke-miterlimit="10" stroke-linejoin="miter" fill="none" stroke="#7ba763" d="M109.977 70.766 108.398 75.266 106.824 70.766ZM109.977 70.766"/>
<path stroke-width="1.4" stroke-linecap="butt" stroke-miterlimit="10" stroke-linejoin="miter" fill="none" stroke="#22709a" d="M140.141 26.398C144.707 26.398 149.277 26.398 153.844 26.398"/>
<path d="M140.07 27.977 135.57 26.398 140.07 24.824ZM140.07 27.977" fill="#22709a"/>
<path stroke-width="1.4" stroke-linecap="butt" stroke-miterlimit="10" stroke-linejoin="miter" fill="none" stroke="#22709a" d="M140.07 27.977 135.57 26.398 140.07 24.824ZM140.07 27.977"/>
<path stroke-width="1.4" stroke-linecap="butt" stroke-miterlimit="10" stroke-linejoin="miter" fill="none" stroke="#cdad56" d="M269.09 39.715C265.852 41.027 262.57 42.285 259.398 43.398 248.109 47.371 180.91 65.512 140.059 76.453"/>
<path d="M140.453 77.977 135.699 77.621 139.641 74.934ZM140.453 77.977" fill="#cdad56"/>
<path stroke-width="1.4" stroke-linecap="butt" stroke-miterlimit="10" stroke-linejoin="miter" fill="none" stroke="#cdad56" d="M140.453 77.977 135.699 77.621 139.641 74.934ZM140.453 77.977"/>
<path stroke-width="1.4" stroke-linecap="butt" stroke-miterlimit="10" stroke-linejoin="miter" fill="none" stroke="#22709a" d="M197.402 75.289C198.359 66.113 199.816 52.172 200.91 41.695"/>
<path d="M199.348 41.465 201.383 37.152 202.48 41.793ZM199.348 41.465" fill="#22709a"/>
<path stroke-width="1.4" stroke-linecap="butt" stroke-miterlimit="10" stroke-linejoin="miter" fill="none" stroke="#22709a" d="M199.348 41.465 201.383 37.152 202.48 41.793ZM199.348 41.465"/>
<path stroke-width="1.4" stroke-linecap="butt" stroke-miterlimit="10" stroke-linejoin="miter" fill="none" stroke="#cdad56" d="M36.398 96.652C36.398 103.965 36.398 114.246 36.398 123.395"/>
<path d="M37.977 123.555 36.398 128.055 34.824 123.555ZM37.977 123.555" fill="#cdad56"/>
<path stroke-width="1.4" stroke-linecap="butt" stroke-miterlimit="10" stroke-linejoin="miter" fill="none" stroke="#cdad56" d="M37.977 123.555 36.398 128.055 34.824 123.555ZM37.977 123.555"/>
<path stroke-width="1.4" stroke-linecap="butt" stroke-miterlimit="10" stroke-linejoin="miter" fill="none" stroke="#cdad56" d="M46.148 162.418C51.504 171.211 58.07 182 63.164 190.371"/>
<path d="M64.543 189.602 65.535 194.266 61.852 191.242ZM64.543 189.602" fill="#cdad56"/>
<path stroke-width="1.4" stroke-linecap="butt" stroke-miterlimit="10" stroke-linejoin="miter" fill="none" stroke="#cdad56" d="M64.543 189.602 65.535 194.266 61.852 191.242ZM64.543 189.602"/>
<path stroke-width="1.4" stroke-linecap="butt" stroke-miterlimit="10" stroke-linejoin="miter" fill="none" stroke="#cdad56" d="M36.398 43.418C36.398 51.895 36.398 62.219 36.398 70.449"/>
<path d="M37.977 70.766 36.398 75.266 34.824 70.766ZM37.977 70.766" fill="#cdad56"/>
<path stroke-width="1.4" stroke-linecap="butt" stroke-miterlimit="10" stroke-linejoin="miter" fill="none" stroke="#cdad56" d="M37.977 70.766 36.398 75.266 34.824 70.766ZM37.977 70.766"/>
<path stroke-width="1.4" stroke-linecap="butt" stroke-miterlimit="10" stroke-linejoin="miter" fill="none" stroke="#63473d" d="M82.793 194.266C89.164 186.668 96.57 175.82 102.012 166.367"/>
<path d="M100.648 165.578 104.219 162.418 103.398 167.113ZM100.648 165.578" fill="#63473d"/>
<path stroke-width="1.4" stroke-linecap="butt" stroke-miterlimit="10" stroke-linejoin="miter" fill="none" stroke="#63473d" d="M100.648 165.578 104.219 162.418 103.398 167.113ZM100.648 165.578"/>
<path stroke-width="1.4" stroke-linecap="butt" stroke-miterlimit="10" stroke-linejoin="miter" fill="none" stroke="#22709a" d="M164.305 194.191C170.492 173.504 185 125.004 192.199 100.945"/>
<path d="M190.738 100.336 193.535 96.473 193.754 101.238ZM190.738 100.336" fill="#22709a"/>
<path stroke-width="1.4" stroke-linecap="butt" stroke-miterlimit="10" stroke-linejoin="miter" fill="none" stroke="#22709a" d="M190.738 100.336 193.535 96.473 193.754 101.238ZM190.738 100.336"/>
<path stroke-width="1.4" stroke-linecap="butt" stroke-miterlimit="10" stroke-linejoin="miter" fill="none" stroke="#63473d" d="M251.398 215.652C251.398 222.965 251.398 233.246 251.398 242.395"/>
<path d="M252.977 242.555 251.398 247.055 249.824 242.555ZM252.977 242.555" fill="#63473d"/>
<path stroke-width="1.4" stroke-linecap="butt" stroke-miterlimit="10" stroke-linejoin="miter" fill="none" stroke="#63473d" d="M252.977 242.555 251.398 247.055 249.824 242.555ZM252.977 242.555"/>
<path stroke-width="1.4" stroke-linecap="butt" stroke-dasharray="6,6" stroke-miterlimit="10" stroke-linejoin="miter" fill="none" stroke="#22709a" d="M275.789 247.281C289.734 238.062 306.953 226.684 319.805 218.191"/>
<path d="M319.02 216.82 323.641 215.652 320.758 219.449ZM319.02 216.82" fill="#22709a"/>
<path stroke-width="1.4" stroke-linecap="butt" stroke-miterlimit="10" stroke-linejoin="miter" fill="none" stroke="#22709a" d="M319.02 216.82 323.641 215.652 320.758 219.449ZM319.02 216.82"/>
<path stroke-width="1.4" stroke-linecap="butt" stroke-miterlimit="10" stroke-linejoin="miter" fill="none" stroke="#cdad56" d="M251.398 162.418C251.398 170.895 251.398 181.219 251.398 189.449"/>
<path d="M252.977 189.766 251.398 194.266 249.824 189.766ZM252.977 189.766" fill="#cdad56"/>
<path stroke-width="1.4" stroke-linecap="butt" stroke-miterlimit="10" stroke-linejoin="miter" fill="none" stroke="#cdad56" d="M252.977 189.766 251.398 194.266 249.824 189.766ZM252.977 189.766"/>
<path stroke-width="1.4" stroke-linecap="butt" stroke-miterlimit="10" stroke-linejoin="miter" fill="none" stroke="#22709a" d="M319.895 194.32C308.367 188.348 292.996 181.48 278.398 178.398 254.918 173.445 247.926 173.652 224.398 178.398 210.828 181.137 196.543 186.883 185.012 192.328"/>
<path d="M185.633 193.777 180.895 194.316 184.262 190.941ZM185.633 193.777" fill="#22709a"/>
<path stroke-width="1.4" stroke-linecap="butt" stroke-miterlimit="10" stroke-linejoin="miter" fill="none" stroke="#22709a" d="M185.633 193.777 180.895 194.316 184.262 190.941ZM185.633 193.777"/>
<path d="M128.398 75.398H88.398C84.898 75.398 81.398 78.898 81.398 82.398V89.398C81.398 92.898 84.898 96.398 88.398 96.398H128.398C131.898 96.398 135.398 92.898 135.398 89.398V82.398C135.398 78.898 131.898 75.398 128.398 75.398" fill="#c5b9b7"/>
<path stroke-width="1.2" stroke-linecap="butt" stroke-miterlimit="10" stroke-linejoin="miter" fill="none" stroke="#63473d" d="M128.398 75.398H88.398C84.898 75.398 81.398 78.898 81.398 82.398V89.398C81.398 92.898 84.898 96.398 88.398 96.398H128.398C131.898 96.398 135.398 92.898 135.398 89.398V82.398C135.398 78.898 131.898 75.398 128.398 75.398"/>
<text xml:space="preserve" transform="matrix(1 0 0 1 0 0)" font-size="12" font-family="NimbusRoman"><tspan y="89" x="99.39844 104.64244 110.64244">add</tspan></text>
<path d="M81.398 128.398H135.39801V162.398H81.398Z" fill="#c5b9b7"/>
<path stroke-width="1.2" stroke-linecap="butt" stroke-miterlimit="10" stroke-linejoin="miter" fill="none" stroke="#63473d" d="M81.398 128.398H135.39801V162.398H81.398Z"/>
<text xml:space="preserve" transform="matrix(1 0 0 1 0 0)" font-size="12" font-family="NimbusRoman"><tspan y="142" x="92.39844 98.39844 103.65444 109.65444 114.15444 120.15444">Tensor</tspan><tspan y="155" x="95.39844 99.14244 105.14244 108.14244 111.14244 117.14244">(2, 3)</tspan></text>
<path d="M81.398 9.398H135.39801V43.398H81.398Z" fill="#d1e4cf"/>
<path stroke-width="1.2" stroke-linecap="butt" stroke-miterlimit="10" stroke-linejoin="miter" fill="none" stroke="#7ba763" d="M81.398 9.398H135.39801V43.398H81.398Z"/>
<text xml:space="preserve" transform="matrix(1 0 0 1 0 0)" font-size="12" font-family="NimbusRoman"><tspan y="23" x="92.39844 98.39844 103.65444 109.65444 114.15444 120.15444">Tensor</tspan><tspan y="35.999998" x="95.39844 99.14244 105.14244 108.14244 111.14244 117.14244">(2, 3)</tspan></text>
<path d="M269.398 9.398H323.398V43.398H269.398Z" fill="#ffefc7"/>
<path stroke-width="1.2" stroke-linecap="butt" stroke-miterlimit="10" stroke-linejoin="miter" fill="none" stroke="#cdad56" d="M269.398 9.398H323.398V43.398H269.398Z"/>
<text xml:space="preserve" transform="matrix(1 0 0 1 0 0)" font-size="12" font-family="NimbusRoman"><tspan y="23" x="280.39845 286.39845 291.65446 297.65446 302.15446 308.15446">Tensor</tspan><tspan y="35.999998" x="283.39845 287.14244 293.14244 296.14244 299.14244 305.14244">(2, 3)</tspan></text>
<path d="M231.898 75.398H160.898C157.398 75.398 153.898 78.898 153.898 82.398V89.398C153.898 92.898 157.398 96.398 160.898 96.398H231.898C235.398 96.398 238.898 92.898 238.898 89.398V82.398C238.898 78.898 235.398 75.398 231.898 75.398" fill="#a9d8ee"/>
<path stroke-width="1.2" stroke-linecap="butt" stroke-miterlimit="10" stroke-linejoin="miter" fill="none" stroke="#22709a" d="M231.898 75.398H160.898C157.398 75.398 153.898 78.898 153.898 82.398V89.398C153.898 92.898 157.398 96.398 160.898 96.398H231.898C235.398 96.398 238.898 92.898 238.898 89.398V82.398C238.898 78.898 235.398 75.398 231.898 75.398"/>
<text xml:space="preserve" transform="matrix(1 0 0 1 0 0)" font-size="12" font-family="NimbusRoman"><tspan y="89" x="161.89844 170.15444 176.15444 182.15444 190.39844 195.65444 200.89844 206.89844 215.14244 220.39844 224.14244">AddBackward</tspan></text>
<path d="M243.898 15.898H160.898C157.398 15.898 153.898 19.398 153.898 22.898V29.898C153.898 33.398 157.398 36.898 160.898 36.898H243.898C247.398 36.898 250.898 33.398 250.898 29.898V22.898C250.898 19.398 247.398 15.898 243.898 15.898" fill="#a9d8ee"/>
<path stroke-width="1.2" stroke-linecap="butt" stroke-miterlimit="10" stroke-linejoin="miter" fill="none" stroke="#22709a" d="M243.898 15.898H160.898C157.398 15.898 153.898 19.398 153.898 22.898V29.898C153.898 33.398 157.398 36.898 160.898 36.898H243.898C247.398 36.898 250.898 33.398 250.898 29.898V22.898C250.898 19.398 247.398 15.898 243.898 15.898"/>
<text xml:space="preserve" transform="matrix(1 0 0 1 0 0)" font-size="12" font-family="NimbusRoman"><tspan y="29.5" x="161.89844 170.15444 175.39844 180.65444 186.65444 195.65444 201.65444 204.64243 209.89842 212.89842 218.14243 227.14243 230.89842 236.14243">AccumulateGrad</tspan></text>
<path d="M56.398 75.398H16.398C12.898 75.398 9.398 78.898 9.398 82.398V89.398C9.398 92.898 12.898 96.398 16.398 96.398H56.398C59.898 96.398 63.398 92.898 63.398 89.398V82.398C63.398 78.898 59.898 75.398 56.398 75.398" fill="#ffefc7"/>
<path stroke-width="1.2" stroke-linecap="butt" stroke-miterlimit="10" stroke-linejoin="miter" fill="none" stroke="#cdad56" d="M56.398 75.398H16.398C12.898 75.398 9.398 78.898 9.398 82.398V89.398C9.398 92.898 12.898 96.398 16.398 96.398H56.398C59.898 96.398 63.398 92.898 63.398 89.398V82.398C63.398 78.898 59.898 75.398 56.398 75.398"/>
<text xml:space="preserve" transform="matrix(1 0 0 1 0 0)" font-size="12" font-family="NimbusRoman"><tspan y="89" x="18.898438 24.142439 30.142439 36.14244 41.39844 47.39844">expand</tspan></text>
<path d="M9.398 128.398H63.398V162.398H9.398Z" fill="#ffefc7"/>
<path stroke-width="1.2" stroke-linecap="butt" stroke-miterlimit="10" stroke-linejoin="miter" fill="none" stroke="#cdad56" d="M9.398 128.398H63.398V162.398H9.398Z"/>
<text xml:space="preserve" transform="matrix(1 0 0 1 0 0)" font-size="12" font-family="NimbusRoman"><tspan y="142" x="20.398438 26.398438 31.654438 37.654439 42.154439 48.154439">Tensor</tspan><tspan y="155" x="23.398438 27.142437 33.142438 36.142438 39.142438 45.142438">(2, 3)</tspan></text>
<path d="M9.398 9.398H63.398V43.398H9.398Z" fill="#ffefc7"/>
<path stroke-width="1.2" stroke-linecap="butt" stroke-miterlimit="10" stroke-linejoin="miter" fill="none" stroke="#cdad56" d="M9.398 9.398H63.398V43.398H9.398Z"/>
<text xml:space="preserve" transform="matrix(1 0 0 1 0 0)" font-size="12" font-family="NimbusRoman"><tspan y="23" x="20.398438 26.398438 31.654438 37.654439 42.154439 48.154439">Tensor</tspan><tspan y="35.999998" x="32.398439 36.142438">()</tspan></text>
<path d="M91.398 194.398H51.398C47.898 194.398 44.398 197.898 44.398 201.398V208.398C44.398 211.898 47.898 215.398 51.398 215.398H91.398C94.898 215.398 98.398 211.898 98.398 208.398V201.398C98.398 197.898 94.898 194.398 91.398 194.398" fill="#c5b9b7"/>
<path stroke-width="1.2" stroke-linecap="butt" stroke-miterlimit="10" stroke-linejoin="miter" fill="none" stroke="#63473d" d="M91.398 194.398H51.398C47.898 194.398 44.398 197.898 44.398 201.398V208.398C44.398 211.898 47.898 215.398 51.398 215.398H91.398C94.898 215.398 98.398 211.898 98.398 208.398V201.398C98.398 197.898 94.898 194.398 91.398 194.398"/>
<text xml:space="preserve" transform="matrix(1 0 0 1 0 0)" font-size="12" font-family="NimbusRoman"><tspan y="208" x="59.398439 62.398439 68.39844 73.64244">ipow</tspan></text>
<path d="M198.898 194.398H123.898C120.398 194.398 116.898 197.898 116.898 201.398V208.398C116.898 211.898 120.398 215.398 123.898 215.398H198.898C202.398 215.398 205.898 211.898 205.898 208.398V201.398C205.898 197.898 202.398 194.398 198.898 194.398" fill="#a9d8ee"/>
<path stroke-width="1.2" stroke-linecap="butt" stroke-miterlimit="10" stroke-linejoin="miter" fill="none" stroke="#22709a" d="M198.898 194.398H123.898C120.398 194.398 116.898 197.898 116.898 201.398V208.398C116.898 211.898 120.398 215.398 123.898 215.398H198.898C202.398 215.398 205.898 211.898 205.898 208.398V201.398C205.898 197.898 202.398 194.398 198.898 194.398"/>
<text xml:space="preserve" transform="matrix(1 0 0 1 0 0)" font-size="12" font-family="NimbusRoman"><tspan y="208" x="124.89844 128.64244 134.64244 139.89844 148.89844 157.15444 162.39844 167.65444 173.65444 181.89844 187.15444 190.89844">IPowBackward</tspan></text>
<path d="M271.398 194.398H231.398C227.898 194.398 224.398 197.898 224.398 201.398V208.398C224.398 211.898 227.898 215.398 231.398 215.398H271.398C274.898 215.398 278.398 211.898 278.398 208.398V201.398C278.398 197.898 274.898 194.398 271.398 194.398" fill="#c5b9b7"/>
<path stroke-width="1.2" stroke-linecap="butt" stroke-miterlimit="10" stroke-linejoin="miter" fill="none" stroke="#63473d" d="M271.398 194.398H231.398C227.898 194.398 224.398 197.898 224.398 201.398V208.398C224.398 211.898 227.898 215.398 231.398 215.398H271.398C274.898 215.398 278.398 211.898 278.398 208.398V201.398C278.398 197.898 274.898 194.398 271.398 194.398"/>
<text xml:space="preserve" transform="matrix(1 0 0 1 0 0)" font-size="12" font-family="NimbusRoman"><tspan y="208" x="241.89844 250.89844 256.89845">mul</tspan></text>
<path d="M224.398 247.398H278.398V281.398H224.398Z" fill="#c5b9b7"/>
<path stroke-width="1.2" stroke-linecap="butt" stroke-miterlimit="10" stroke-linejoin="miter" fill="none" stroke="#63473d" d="M224.398 247.398H278.398V281.398H224.398Z"/>
<text xml:space="preserve" transform="matrix(1 0 0 1 0 0)" font-size="12" font-family="NimbusRoman"><tspan y="261" x="235.39844 241.39844 246.65444 252.65444 257.15446 263.15446">Tensor</tspan><tspan y="274" x="238.39844 242.14244 248.14244 251.14244 254.14244 260.14247">(2, 3)</tspan></text>
<path d="M224.398 128.398H278.398V162.398H224.398Z" fill="#ffefc7"/>
<path stroke-width="1.2" stroke-linecap="butt" stroke-miterlimit="10" stroke-linejoin="miter" fill="none" stroke="#cdad56" d="M224.398 128.398H278.398V162.398H224.398Z"/>
<text xml:space="preserve" transform="matrix(1 0 0 1 0 0)" font-size="12" font-family="NimbusRoman"><tspan y="142" x="235.39844 241.39844 246.65444 252.65444 257.15446 263.15446">Tensor</tspan><tspan y="155" x="238.39844 242.14244 248.14244 251.14244 254.14244 260.14247">(2, 3)</tspan></text>
<path d="M373.398 194.398H303.398C299.898 194.398 296.398 197.898 296.398 201.398V208.398C296.398 211.898 299.898 215.398 303.398 215.398H373.398C376.898 215.398 380.398 211.898 380.398 208.398V201.398C380.398 197.898 376.898 194.398 373.398 194.398" fill="#a9d8ee"/>
<path stroke-width="1.2" stroke-linecap="butt" stroke-miterlimit="10" stroke-linejoin="miter" fill="none" stroke="#22709a" d="M373.398 194.398H303.398C299.898 194.398 296.398 197.898 296.398 201.398V208.398C296.398 211.898 299.898 215.398 303.398 215.398H373.398C376.898 215.398 380.398 211.898 380.398 208.398V201.398C380.398 197.898 376.898 194.398 373.398 194.398"/>
<text xml:space="preserve" transform="matrix(1 0 0 1 0 0)" font-size="12" font-family="NimbusRoman"><tspan y="208" x="304.39845 314.89845 320.89845 323.89845 332.15446 337.39845 342.65446 348.65446 356.89845 362.15446 365.89845">MulBackward</tspan></text>
</g>
</svg>
